<svg width="37" height="38" viewBox="0 0 37 38" fill="none" xmlns="http://www.w3.org/2000/svg">
<rect y="0.5" width="37" height="37" rx="18.5" fill="#014AFF"/>
<path d="M8.4375 24.8906C8.4375 25.5578 8.70254 26.1977 9.17431 26.6694C9.64608 27.1412 10.2859 27.4062 10.9531 27.4062H26.0469C26.7141 27.4062 27.3539 27.1412 27.8257 26.6694C28.2975 26.1977 28.5625 25.5578 28.5625 24.8906V17.9727H8.4375V24.8906ZM11.4023 21.4766C11.4023 21.1191 11.5443 20.7764 11.7971 20.5236C12.0498 20.2709 12.3926 20.1289 12.75 20.1289H14.9062C15.2637 20.1289 15.6065 20.2709 15.8592 20.5236C16.1119 20.7764 16.2539 21.1191 16.2539 21.4766V22.375C16.2539 22.7324 16.1119 23.0752 15.8592 23.3279C15.6065 23.5807 15.2637 23.7227 14.9062 23.7227H12.75C12.3926 23.7227 12.0498 23.5807 11.7971 23.3279C11.5443 23.0752 11.4023 22.7324 11.4023 22.375V21.4766ZM26.0469 11.5938H10.9531C10.2859 11.5938 9.64608 11.8588 9.17431 12.3306C8.70254 12.8023 8.4375 13.4422 8.4375 14.1094V15.2773H28.5625V14.1094C28.5625 13.4422 28.2975 12.8023 27.8257 12.3306C27.3539 11.8588 26.7141 11.5938 26.0469 11.5938Z" fill="white"/>
</svg>
