<svg width="17" height="17" viewBox="0 0 17 17" fill="none" xmlns="http://www.w3.org/2000/svg">
<path d="M13.1667 2.5H3.83333C3.09695 2.5 2.5 3.09695 2.5 3.83333V13.1667C2.5 13.903 3.09695 14.5 3.83333 14.5H13.1667C13.903 14.5 14.5 13.903 14.5 13.1667V3.83333C14.5 3.09695 13.903 2.5 13.1667 2.5Z" stroke="#014AFF" stroke-width="1.33333" stroke-linecap="round" stroke-linejoin="round"/>
<path d="M6.16699 7.16699C6.71928 7.16699 7.16699 6.71928 7.16699 6.16699C7.16699 5.61471 6.71928 5.16699 6.16699 5.16699C5.61471 5.16699 5.16699 5.61471 5.16699 6.16699C5.16699 6.71928 5.61471 7.16699 6.16699 7.16699Z" stroke="#014AFF" stroke-width="1.33333" stroke-linecap="round" stroke-linejoin="round"/>
<path d="M14.4997 10.5003L11.1663 7.16699L3.83301 14.5003" stroke="#014AFF" stroke-width="1.33333" stroke-linecap="round" stroke-linejoin="round"/>
</svg>
