<svg width="24" height="24" viewBox="0 0 24 24" fill="none" xmlns="http://www.w3.org/2000/svg">
<g clip-path="url(#clip0_850_5995)">
<path d="M5.48834 4.47085L5.48856 4.47072L7.48836 3.22984L7.48856 3.22972L7.51637 3.21245C8.49279 2.60613 9.27412 2.12096 9.95042 1.79213C10.6485 1.4527 11.2919 1.25 12 1.25C12.7081 1.25 13.3513 1.45273 14.0493 1.79216C14.7237 2.12013 15.5028 2.6037 16.4762 3.20784L16.5114 3.22972L16.5115 3.22976L18.5114 4.47072L18.5117 4.47085L18.5545 4.49749C19.4706 5.06631 20.2048 5.52225 20.7712 5.95588C21.36 6.40669 21.8124 6.86592 22.139 7.46313C22.4648 8.05831 22.6115 8.6917 22.6818 9.44034C22.75 10.166 22.75 11.0534 22.75 12.1663V12.203V13.725V13.7799C22.75 15.6834 22.75 17.1861 22.5972 18.3612C22.4405 19.5665 22.1113 20.5397 21.3674 21.3091L5.48834 4.47085ZM5.48834 4.47085L5.44547 4.49747C4.52944 5.06629 3.79513 5.52227 3.22887 5.95593C2.64037 6.40662 2.18816 6.86582 1.86206 7.46299C1.53574 8.05817 1.38877 8.6916 1.3183 9.44035M5.48834 4.47085L1.3183 9.44035M1.3183 9.44035C1.24999 10.1662 1.24999 11.0539 1.25 12.1672M1.3183 9.44035L1.25 12.1672M1.25 12.1672L1.25 12.204M1.25 12.1672L1.25 12.204M1.25 12.204V13.725L1.25 13.7799C1.24999 15.6839 1.24997 17.1866 1.40276 18.3616C1.5595 19.5669 1.88884 20.54 2.63285 21.3094C3.3798 22.0823 4.33067 22.4276 5.50768 22.5913C6.64857 22.75 8.10568 22.75 9.94185 22.75H10H14H14.0581M1.25 12.204L14.0581 22.75M14.0581 22.75C15.8943 22.75 17.3514 22.75 18.4923 22.5913M14.0581 22.75L18.4923 22.5913M18.4923 22.5913C19.6693 22.4276 20.6202 22.0823 21.3672 21.3094L18.4923 22.5913Z" stroke="#757880" stroke-width="1.5"/>
<path d="M12 13.5V17.5Z" fill="#014AFF"/>
<path d="M12 13.5V17.5" stroke="#757880" stroke-width="2.3" stroke-linecap="round"/>
</g>
<defs>
<clipPath id="clip0_850_5995">
<rect width="24" height="24" fill="white"/>
</clipPath>
</defs>
</svg>
